<svg width="66" height="65" viewBox="0 0 66 65" fill="none" xmlns="http://www.w3.org/2000/svg">
<rect x="0.800049" y="0.187225" width="64.8065" height="64.8065" rx="12.9613" fill="#F7055C" fill-opacity="0.2"/>
<path d="M14.5178 27.0821C14.5178 23.2826 14.5178 21.3828 15.218 19.9149C15.9269 18.4286 17.1247 17.2308 18.611 16.5219C20.079 15.8217 21.9787 15.8217 25.7782 15.8217H40.6324C44.4319 15.8217 46.3317 15.8217 47.7996 16.5219C49.2859 17.2308 50.4837 18.4286 51.1927 19.9149C51.8928 21.3828 51.8928 23.2826 51.8928 27.0821C51.8928 30.8816 51.8928 32.7814 51.1927 34.2493C50.4837 35.7356 49.2859 36.9334 47.7996 37.6424C46.3317 38.3425 44.4319 38.3425 40.6324 38.3425H25.7782C21.9787 38.3425 20.079 38.3425 18.611 37.6424C17.1247 36.9334 15.9269 35.7356 15.218 34.2493C14.5178 32.7814 14.5178 30.8816 14.5178 27.0821Z" fill="#F6055C"/>
<path d="M28.2789 43.5696C30.195 42.0957 31.1531 41.3587 32.2266 41.1347C32.8722 41 33.5386 41 34.1842 41.1347C35.2577 41.3587 36.2158 42.0957 38.1319 43.5696C40.6356 45.4955 41.8874 46.4585 41.9415 47.3277C41.9728 47.8314 41.8042 48.3272 41.4722 48.7074C40.8994 49.3634 39.32 49.3634 36.1613 49.3634H30.2495C27.0908 49.3634 25.5114 49.3634 24.9386 48.7074C24.6066 48.3272 24.438 47.8314 24.4693 47.3277C24.5234 46.4585 25.7752 45.4955 28.2789 43.5696Z" fill="#F6055C"/>
</svg>
