<svg width="66" height="66" viewBox="0 0 66 66" fill="none" xmlns="http://www.w3.org/2000/svg">
<rect x="0.800049" y="0.645355" width="64.8065" height="64.8065" rx="12.9613" fill="#19A8EB" fill-opacity="0.2"/>
<path fill-rule="evenodd" clip-rule="evenodd" d="M27.2501 37.1042C21.9574 37.1042 17.6667 41.3948 17.6667 46.6875C17.6667 49.8631 20.2411 52.4375 23.4167 52.4375H42.5834C45.7591 52.4375 48.3334 49.8631 48.3334 46.6875C48.3334 41.3948 44.0428 37.1042 38.7501 37.1042H27.2501Z" fill="#19A8EB"/>
<path fill-rule="evenodd" clip-rule="evenodd" d="M33.0001 14.1042C27.7074 14.1042 23.4167 18.3948 23.4167 23.6875C23.4167 28.9802 27.7074 33.2708 33.0001 33.2708C38.2928 33.2708 42.5834 28.9802 42.5834 23.6875C42.5834 18.3948 38.2928 14.1042 33.0001 14.1042Z" fill="#19A8EB"/>
</svg>
