<svg width="66" height="66" viewBox="0 0 66 66" fill="none" xmlns="http://www.w3.org/2000/svg">
<rect x="0.800049" y="0.91629" width="64.8065" height="64.8065" rx="12.9613" fill="#8204FF" fill-opacity="0.2"/>
<path d="M24.7714 21.7977C25.1813 20.6899 25.3863 20.136 25.5879 19.8778C26.432 18.7963 28.0678 18.7963 28.912 19.8778C29.1135 20.136 29.3185 20.6899 29.7284 21.7977C30.0321 22.6185 30.184 23.0288 30.3714 23.4038C31.1133 24.8875 32.3163 26.0905 33.8 26.8324C34.175 27.0198 34.5853 27.1717 35.4061 27.4754C36.5139 27.8853 37.0678 28.0903 37.326 28.2918C38.4076 29.136 38.4076 30.7718 37.326 31.6159C37.0678 31.8175 36.5139 32.0225 35.4061 32.4324C34.5853 32.7361 34.175 32.8879 33.8 33.0754C32.3163 33.8172 31.1133 35.0203 30.3714 36.504C30.184 36.8789 30.0321 37.2893 29.7284 38.11C29.3185 39.2178 29.1135 39.7717 28.912 40.03C28.0678 41.1115 26.432 41.1115 25.5879 40.03C25.3863 39.7717 25.1813 39.2178 24.7714 38.11C24.4677 37.2893 24.3159 36.8789 24.1284 36.504C23.3866 35.0203 22.1835 33.8172 20.6998 33.0754C20.3249 32.8879 19.9145 32.7361 19.0938 32.4324C17.986 32.0225 17.4321 31.8175 17.1738 31.6159C16.0923 30.7718 16.0923 29.136 17.1738 28.2918C17.4321 28.0903 17.986 27.8853 19.0938 27.4754C19.9145 27.1717 20.3249 27.0198 20.6998 26.8324C22.1835 26.0905 23.3866 24.8875 24.1284 23.4038C24.3159 23.0288 24.4677 22.6185 24.7714 21.7977Z" fill="#8204FF"/>
<path d="M39.2834 37.4196C39.316 37.334 39.3323 37.2913 39.3423 37.2676C39.8368 36.0965 41.4964 36.0965 41.9909 37.2676C42.0009 37.2913 42.0171 37.334 42.0497 37.4196C42.0852 37.5127 42.1029 37.5593 42.1205 37.6037C42.8998 39.576 44.4611 41.1374 46.4334 41.9167C46.4778 41.9342 46.5244 41.9519 46.6175 41.9874C46.7031 42.02 46.7459 42.0363 46.7695 42.0463C47.9406 42.5407 47.9406 44.2004 46.7695 44.6948C46.7459 44.7048 46.7031 44.7211 46.6175 44.7537C46.5244 44.7891 46.4778 44.8069 46.4334 44.8244C44.4611 45.6037 42.8998 47.1651 42.1205 49.1373C42.1029 49.1818 42.0852 49.2284 42.0497 49.3215C42.0171 49.4071 42.0009 49.4498 41.9909 49.4735C41.4964 50.6446 39.8368 50.6446 39.3423 49.4735C39.3323 49.4498 39.316 49.4071 39.2834 49.3215C39.248 49.2284 39.2303 49.1818 39.2127 49.1373C38.4334 47.1651 36.872 45.6037 34.8998 44.8244C34.8553 44.8069 34.8088 44.7891 34.7156 44.7537C34.6301 44.7211 34.5873 44.7048 34.5637 44.6948C33.3925 44.2004 33.3925 42.5407 34.5637 42.0463C34.5873 42.0363 34.6301 42.02 34.7156 41.9874C34.8088 41.9519 34.8553 41.9342 34.8998 41.9167C36.872 41.1374 38.4334 39.576 39.2127 37.6037C39.2303 37.5593 39.248 37.5127 39.2834 37.4196Z" fill="#8204FF"/>
</svg>
