<svg width="66" height="66" viewBox="0 0 66 66" fill="none" xmlns="http://www.w3.org/2000/svg">
<rect x="0.800049" y="0.45813" width="64.8065" height="64.8065" rx="12.9613" fill="#059357" fill-opacity="0.2"/>
<path d="M25.3333 10C26.7447 10 27.8889 11.0839 27.8889 12.4211V14.8421H38.1111V12.4211C38.1111 11.0839 39.2553 10 40.6667 10C42.0781 10 43.2222 11.0839 43.2222 12.4211V14.8421H50.8889C53.7117 14.8421 56 17.01 56 19.6842V51.1579C56 53.8321 53.7117 56 50.8889 56H15.1111C12.2883 56 10 53.8321 10 51.1579V19.6842C10 17.01 12.2883 14.8421 15.1111 14.8421H22.7778V12.4211C22.7778 11.0839 23.9219 10 25.3333 10ZM22.7778 19.6842H15.1111V26.9474H50.8889V19.6842H43.2222V22.1053C43.2222 23.4424 42.0781 24.5263 40.6667 24.5263C39.2553 24.5263 38.1111 23.4424 38.1111 22.1053V19.6842H27.8889V22.1053C27.8889 23.4424 26.7447 24.5263 25.3333 24.5263C23.9219 24.5263 22.7778 23.4424 22.7778 22.1053V19.6842ZM50.8889 31.7895H15.1111V51.1579H50.8889V31.7895Z" fill="#059357"/>
</svg>
