<svg width="66" height="65" viewBox="0 0 66 65" fill="none" xmlns="http://www.w3.org/2000/svg">
<rect x="0.800049" width="64.8065" height="64.8065" rx="12.9613" fill="#E2E2E2"/>
<path d="M19.4426 23.2147C25.0178 17.618 27.8055 14.8197 31.1581 14.1858C32.5109 13.9301 33.8997 13.9301 35.2526 14.1858C38.6052 14.8197 41.3928 17.618 46.9681 23.2147C49.0673 25.322 50.1169 26.3756 50.7889 27.6519C51.0659 28.1778 51.2933 28.7283 51.4683 29.2964C51.8928 30.6748 51.8928 32.1621 51.8928 35.1365V44.8574C51.8928 48.2976 49.1039 51.0865 45.6637 51.0865C42.2234 51.0865 39.4345 48.2977 39.4345 44.8574V42.7251C39.4345 39.2848 36.6456 36.4959 33.2053 36.4959C29.765 36.4959 26.9762 39.2848 26.9762 42.7251V44.8574C26.9762 48.2977 24.1873 51.0865 20.747 51.0865C17.3067 51.0865 14.5178 48.2977 14.5178 44.8574V35.1365C14.5178 32.1621 14.5178 30.6748 14.9424 29.2964C15.1173 28.7283 15.3448 28.1778 15.6217 27.6519C16.2938 26.3756 17.3434 25.322 19.4426 23.2147Z" fill="black"/>
</svg>
