<svg width="66" height="66" viewBox="0 0 66 66" fill="none" xmlns="http://www.w3.org/2000/svg">
<rect x="0.800049" y="0.374451" width="64.8065" height="64.8065" rx="12.9613" fill="#F5B202" fill-opacity="0.2"/>
<path d="M29.3721 43.7944V43.7944C28.6765 45.6492 30.0477 47.6277 32.0286 47.6277H44.7814C45.8308 47.6277 46.3555 47.6277 46.7457 47.5628C49.4047 47.1208 51.176 44.5733 50.6646 41.9268C50.5895 41.5384 50.4068 41.0466 50.0414 40.0629V40.0629C49.7373 39.244 49.5852 38.8346 49.4084 38.4773C48.2418 36.1199 45.9483 34.5252 43.3323 34.2524C42.9358 34.211 42.499 34.211 41.6254 34.211H38.2031C37.7948 34.211 37.5907 34.211 37.3878 34.2218C36.8772 34.2489 36.3705 34.327 35.8754 34.4549C35.6787 34.5058 35.484 34.5673 35.0947 34.6902V34.6902" stroke="#F5B202" stroke-width="2.875" stroke-linejoin="round"/>
<path d="M35.313 25.586C35.313 22.675 37.6728 20.3152 40.5838 20.3152C43.4948 20.3152 45.8547 22.675 45.8547 25.586C45.8547 28.497 43.4948 30.8569 40.5838 30.8569C37.6728 30.8569 35.313 28.497 35.313 25.586Z" fill="#F5B202"/>
<path d="M20.9387 21.7527C20.9387 18.8417 23.2986 16.4819 26.2096 16.4819C29.1206 16.4819 31.4804 18.8417 31.4804 21.7527C31.4804 24.6637 29.1206 27.0235 26.2096 27.0235C23.2986 27.0235 20.9387 24.6637 20.9387 21.7527Z" fill="#F5B202"/>
<path d="M37.2204 37.0275C36.9707 35.8467 36.8459 35.2563 36.6709 34.7495C35.5973 31.6412 32.8496 29.4138 29.5865 29.0066C29.0545 28.9402 28.451 28.9402 27.2441 28.9402H25.0325C23.7863 28.9402 23.1632 28.9402 22.6028 29.014C19.7194 29.3935 17.2214 31.2007 15.9587 33.8206C15.7133 34.3298 15.5184 34.9216 15.1285 36.1052C14.6633 37.5175 14.4307 38.2236 14.362 38.7888C13.9998 41.7719 15.9958 44.5309 18.9425 45.1202C19.5008 45.2319 20.2442 45.2319 21.7312 45.2319H30.5696C31.7428 45.2319 32.3295 45.2319 32.7905 45.1565C35.6707 44.6854 37.7411 42.1313 37.6061 39.2159C37.5845 38.7493 37.4632 38.1753 37.2204 37.0275Z" fill="#F5B202"/>
</svg>
