<svg width="66" height="66" viewBox="0 0 66 66" fill="none" xmlns="http://www.w3.org/2000/svg">
<rect x="0.800049" y="0.729065" width="64.8065" height="64.8065" rx="12.9613" fill="#F55A40" fill-opacity="0.2"/>
<path fill-rule="evenodd" clip-rule="evenodd" d="M46.5029 35.6548L35.6734 46.4827C32.8783 49.2774 31.4808 50.6747 29.7893 50.9426C29.2431 51.0291 28.6866 51.029 28.1403 50.9425C26.4489 50.6746 25.0515 49.2771 22.2566 46.4822L20.2732 44.4989C17.4779 41.7036 16.0803 40.306 15.8124 38.6144C15.7259 38.068 15.7259 37.5115 15.8125 36.9652C16.0805 35.2736 17.4782 33.8761 20.2737 31.081L31.1014 20.2549C31.7187 19.6376 32.0273 19.329 32.3912 19.0999C32.5121 19.0238 32.6371 18.9546 32.7656 18.8924C33.1528 18.7053 33.5781 18.6072 34.4287 18.4109L37.7315 17.6488C43.5815 16.299 46.5065 15.6241 48.3922 16.8677C48.9881 17.2606 49.498 17.7705 49.8909 18.3664C51.1343 20.2522 50.4592 23.1772 49.1091 29.0271L48.3474 32.3271C48.1511 33.1779 48.0529 33.6032 47.8657 33.9904C47.8036 34.119 47.7343 34.244 47.6582 34.3648C47.429 34.7288 47.1203 35.0374 46.5029 35.6548ZM36.9859 29.7564C38.2958 31.0663 40.4195 31.0663 41.7294 29.7564C43.0393 28.4465 43.0393 26.3228 41.7294 25.0129C40.4195 23.703 38.2958 23.703 36.9859 25.0129C35.676 26.3228 35.676 28.4465 36.9859 29.7564Z" fill="#F55A40"/>
</svg>
